<?xml version="1.0" encoding="UTF-8"?>
<!DOCTYPE svg PUBLIC "-//W3C//DTD SVG 1.1//EN" "http://www.w3.org/Graphics/SVG/1.1/DTD/svg11.dtd">
<!-- Creator: CorelDRAW 2018 (64 Bit Versão de avaliação) -->
<svg xmlns="http://www.w3.org/2000/svg" xml:space="preserve" width="402.844mm" height="54.1866mm" version="1.1" style="shape-rendering:geometricPrecision; text-rendering:geometricPrecision; image-rendering:optimizeQuality; fill-rule:evenodd; clip-rule:evenodd"
viewBox="0 0 40284.38 5418.66"
 xmlns:xlink="http://www.w3.org/1999/xlink">
 <defs>
  <style type="text/css">
   <![CDATA[
    .fil0 {fill:#006980;fill-rule:nonzero}
   ]]>
  </style>
 </defs>
 <g id="Camada_x0020_1">
  <metadata id="CorelCorpID_0Corel-Layer"/>
  <g id="_2189604280704">
   <path class="fil0" d="M45.34 2895.59l1335.22 -1225.49 0 2400.07 919.35 0c223.48,0 418.28,-38.85 583.74,-116.83 165.33,-77.44 303.86,-179.53 415.87,-306.27 111.6,-126.61 195.61,-271.31 251.48,-434.36 56.27,-162.51 84.13,-327.04 84.13,-492.5 0,-170.15 -27.86,-336.55 -84.13,-499.6 -55.87,-163.05 -139.88,-307.61 -251.48,-433.82 -112.01,-126.74 -250.54,-228.83 -415.87,-306.81 -165.46,-77.44 -360.26,-116.69 -583.74,-116.69l-1233.12 0 -1021.45 -1218.53 2546.11 0c408.9,0 767.56,73.29 1076.24,218.92 309.09,146.04 565.79,339.37 769.97,580.39 204.18,240.63 357.32,512.87 459.41,817.13 102.09,304 153.54,616.43 153.54,937.31 0,320.87 -51.45,633.85 -153.54,937.71 -102.09,303.86 -255.23,576.1 -459.41,817.26 -204.18,240.49 -460.88,433.82 -769.97,579.85 -308.68,146.04 -667.34,218.92 -1076.24,218.92l-2546.11 0 0 -2356.66z"/>
   <path class="fil0" d="M10945.48 144.9l0 2794.37c0,408.76 -71.81,766.08 -215.03,1072.35 -143.76,306.81 -333.21,563.38 -569.14,769.97 -236.34,206.59 -503.35,361.07 -802.93,463.16 -298.77,102.09 -606.51,153.14 -922.7,153.14 -311.36,0 -617.64,-51.05 -919.22,-153.14 -301.58,-102.09 -570.48,-256.57 -806.41,-463.16 -235.8,-206.59 -425.78,-463.16 -569,-769.97 -143.63,-306.27 -215.04,-663.59 -215.04,-1072.35l0 -2794.37 1400.47 0 0 2699.78c0,223.61 31.62,418.27 94.99,583.2 63.24,165.46 146.97,304.4 251.88,416 104.5,112.01 223.61,196.14 357.32,251.88 133.71,55.73 268.89,83.73 405.01,83.73 140.94,0 277.07,-28 408.36,-83.73 131.43,-55.74 249.6,-139.87 354.11,-251.88 104.36,-111.6 188.5,-250.54 251.87,-416 62.84,-164.93 94.46,-359.59 94.46,-583.2l0 -1393.77 1401 -1306.01z"/>
   <polygon class="fil0" points="13375.03,144.9 15578.42,3165.55 15578.42,1458.41 16986.39,144.9 16986.39,5252.39 15585.52,5252.39 15585.52,5237.65 13375.03,2209.89 13375.03,5252.39 11966.92,5252.39 11966.92,144.9 "/>
   <path class="fil0" d="M24136.5 5252.12l0 -2884 0 -19.83 2969.61 0c218.78,0 381.43,-51.04 488.75,-153.14 106.78,-102.09 160.64,-216.5 160.64,-342.71 0,-126.74 -53.86,-239.69 -160.64,-339.36 -107.32,-99.68 -269.97,-149.79 -488.75,-149.79l-1948.3 0 -1021.31 -1218.53 3180.89 0c306.67,0 574.23,50.11 802.53,149.79 228.69,99.81 419.75,229.77 572.88,390.41 153.14,160.24 267.42,342.72 343.12,547.3 75.16,204.18 112.94,413.19 112.94,627.28 0,160.64 -21.7,317.13 -65.65,470.8 -43.94,153.13 -107.31,299.17 -189.57,437.57 -83.2,138.53 -187.71,262.86 -313.78,372.05 -126.74,109.6 -275.19,200.84 -445.34,273.59l1152.87 1838.57 -1401 0 -1050.65 -1685.44 -1298.37 0 0 1685.44 -1400.87 0z"/>
   <polygon class="fil0" points="30016.9,144.9 35036.37,144.9 35036.37,1363.42 33263.44,1363.42 33263.44,3960.58 31862.98,5252.39 31862.98,1363.42 30016.9,1363.42 "/>
   <polygon class="fil0" points="40238.58,144.9 40238.58,1363.42 37312.91,1363.42 37312.91,2012.81 40238.58,2012.81 38932.7,3231.34 37320.01,3231.34 37320.01,4033.86 40238.58,4033.86 40238.58,5252.39 35912.04,5252.39 35912.04,144.9 "/>
   <path class="fil0" d="M20574.71 3374.96l-1615.9 909.84 1615.9 -3689.07 1615.1 3689.07 -1615.1 -909.84zm-13.67 -3376.1c-1490.23,0 -2699.24,1209.01 -2699.24,2700.18 0,1490.23 1209.01,2699.25 2699.24,2699.25 1491.17,0 2700.18,-1209.02 2700.18,-2699.25 0,-1491.17 -1209.01,-2700.18 -2700.18,-2700.18z"/>
  </g>
 </g>
</svg>