<?xml version="1.0" encoding="UTF-8"?>
<!DOCTYPE svg PUBLIC "-//W3C//DTD SVG 1.1//EN" "http://www.w3.org/Graphics/SVG/1.1/DTD/svg11.dtd">
<!-- Creator: CorelDRAW 2018 (64 Bit Versão de avaliação) -->
<svg xmlns="http://www.w3.org/2000/svg" xml:space="preserve" width="71.9666mm" height="10.5832mm" version="1.1" style="shape-rendering:geometricPrecision; text-rendering:geometricPrecision; image-rendering:optimizeQuality; fill-rule:evenodd; clip-rule:evenodd"
viewBox="0 0 7196.66 1058.32"
 xmlns:xlink="http://www.w3.org/1999/xlink">
 <defs>
  <style type="text/css">
   <![CDATA[
    .fil0 {fill:#030712;fill-rule:nonzero}
   ]]>
  </style>
 </defs>
 <g id="Camada_x0020_1">
  <metadata id="CorelCorpID_0Corel-Layer"/>
  <g id="_1851512046048">
   <path class="fil0" d="M1.73 564.19l238.71 -234.45 0 459.15 164.35 0c39.96,0 74.78,-7.43 104.36,-22.35 29.56,-14.82 54.33,-34.35 74.35,-58.59 19.95,-24.22 34.97,-51.9 44.96,-83.1 10.06,-31.09 15.04,-62.56 15.04,-94.22 0,-32.55 -4.98,-64.38 -15.04,-95.57 -9.99,-31.19 -25.01,-58.85 -44.96,-82.99 -20.02,-24.25 -44.79,-43.78 -74.35,-58.7 -29.58,-14.81 -64.4,-22.32 -104.36,-22.32l-220.45 0 -182.61 -233.11 455.18 0c73.11,0 137.23,14.02 192.41,41.88 55.26,27.94 101.15,64.92 137.65,111.03 36.51,46.03 63.88,98.11 82.14,156.32 18.25,58.16 27.44,117.93 27.44,179.31 0,61.39 -9.19,121.26 -27.44,179.39 -18.26,58.13 -45.63,110.21 -82.14,156.35 -36.5,46 -82.39,82.99 -137.65,110.93 -55.18,27.93 -119.3,41.88 -192.41,41.88l-455.18 0 0 -450.84z"/>
   <path class="fil0" d="M1950.42 37.97l0 534.57c0,78.2 -12.84,146.56 -38.44,205.15 -25.7,58.69 -59.57,107.77 -101.75,147.3 -42.25,39.52 -89.99,69.07 -143.54,88.6 -53.42,19.53 -108.44,29.3 -164.96,29.3 -55.67,0 -110.42,-9.77 -164.34,-29.3 -53.91,-19.53 -101.99,-49.08 -144.16,-88.6 -42.16,-39.53 -76.12,-88.61 -101.73,-147.3 -25.68,-58.59 -38.44,-126.95 -38.44,-205.15l0 -534.57 250.37 0 0 516.48c0,42.77 5.65,80.01 16.98,111.57 11.31,31.65 26.28,58.23 45.03,79.58 18.68,21.43 39.98,37.52 63.88,48.18 23.9,10.67 48.07,16.02 72.41,16.02 25.2,0 49.53,-5.35 73,-16.02 23.5,-10.66 44.63,-26.75 63.31,-48.18 18.66,-21.35 33.7,-47.93 45.03,-79.58 11.23,-31.56 16.89,-68.8 16.89,-111.57l0 -266.64 250.46 -249.84z"/>
   <polygon class="fil0" points="2384.77,37.97 2778.68,615.83 2778.68,289.25 3030.4,37.97 3030.4,1015.05 2779.95,1015.05 2779.95,1012.23 2384.77,433.01 2384.77,1015.05 2133.03,1015.05 2133.03,37.97 "/>
   <path class="fil0" d="M4308.67 1015l0 -551.72 0 -3.8 530.9 0c39.11,0 68.19,-9.76 87.38,-29.29 19.09,-19.53 28.71,-41.42 28.71,-65.56 0,-24.25 -9.62,-45.86 -28.71,-64.93 -19.19,-19.07 -48.27,-28.65 -87.38,-28.65l-348.31 0 -182.59 -233.11 568.67 0c54.83,0 102.66,9.59 143.47,28.65 40.89,19.1 75.05,43.96 102.42,74.69 27.38,30.66 47.81,65.56 61.34,104.7 13.44,39.06 20.2,79.05 20.2,120 0,30.74 -3.88,60.67 -11.74,90.07 -7.86,29.3 -19.19,57.23 -33.89,83.71 -14.88,26.5 -33.56,50.29 -56.1,71.18 -22.66,20.96 -49.2,38.42 -79.62,52.33l206.11 351.73 -250.46 0 -187.84 -322.43 -232.12 0 0 322.43 -250.44 0z"/>
   <polygon class="fil0" points="5359.95,37.97 6257.32,37.97 6257.32,271.07 5940.36,271.07 5940.36,767.92 5689.99,1015.05 5689.99,271.07 5359.95,271.07 "/>
   <polygon class="fil0" points="7187.35,37.97 7187.35,271.07 6664.31,271.07 6664.31,395.31 7187.35,395.31 6953.89,628.42 6665.58,628.42 6665.58,781.94 7187.35,781.94 7187.35,1015.05 6413.87,1015.05 6413.87,37.97 "/>
   <path class="fil0" d="M3671.9 655.89l-288.88 174.06 288.88 -705.74 288.75 705.74 -288.75 -174.06zm-2.44 -645.86c-266.42,0 -482.56,231.29 -482.56,516.56 0,285.08 216.14,516.37 482.56,516.37 266.59,0 482.73,-231.29 482.73,-516.37 0,-285.27 -216.14,-516.56 -482.73,-516.56z"/>
  </g>
 </g>
</svg>